<svg width="28" height="28" viewBox="0 0 28 28" fill="none" xmlns="http://www.w3.org/2000/svg">
<g clip-path="url(#clip0_386_1945)">
<path d="M18.6665 4.6665H9.33317C6.75584 4.6665 4.6665 6.75584 4.6665 9.33317V18.6665C4.6665 21.2438 6.75584 23.3332 9.33317 23.3332H18.6665C21.2438 23.3332 23.3332 21.2438 23.3332 18.6665V9.33317C23.3332 6.75584 21.2438 4.6665 18.6665 4.6665Z" stroke="white" stroke-width="2" stroke-linecap="round" stroke-linejoin="round"/>
<path d="M14 17.5C15.933 17.5 17.5 15.933 17.5 14C17.5 12.067 15.933 10.5 14 10.5C12.067 10.5 10.5 12.067 10.5 14C10.5 15.933 12.067 17.5 14 17.5Z" stroke="white" stroke-width="2" stroke-linecap="round" stroke-linejoin="round"/>
<path d="M19.25 8.75V8.751" stroke="white" stroke-width="2" stroke-linecap="round" stroke-linejoin="round"/>
</g>
<defs>
<clipPath id="clip0_386_1945">
<rect width="28" height="28" fill="white"/>
</clipPath>
</defs>
</svg>
