<svg width="58" height="35" viewBox="0 0 58 35" fill="none" xmlns="http://www.w3.org/2000/svg">
<path d="M10.58 23.0408C10.8938 24.3555 11.8819 25.509 13.5359 26.5014C15.1898 27.4937 17.3909 28.2613 20.1389 28.8042C22.8828 29.3428 26.0295 29.6142 29.5792 29.6142C33.0736 29.6142 36.1228 29.4064 38.7225 28.9908C41.3221 28.5752 43.3281 27.9772 44.7318 27.2053C46.1355 26.4293 46.8395 25.526 46.8395 24.4869C46.8395 23.6091 46.4536 22.8966 45.6775 22.3411C44.9014 21.7855 43.6292 21.336 41.8565 20.9925C40.0838 20.649 37.6198 20.3691 34.4646 20.1485L21.6953 19.2282C16.8862 18.8763 12.9931 18.3292 10.0075 17.5828C7.02614 16.8364 4.82512 15.8568 3.40442 14.6354C1.98373 13.414 1.27552 11.9085 1.27552 10.1104C1.27552 8.12562 2.36541 6.38688 4.54522 4.90681C6.72503 3.4225 9.82088 2.27744 13.8285 1.46744C17.8361 0.657428 22.5053 0.250305 27.8404 0.250305C33.0948 0.250305 37.7937 0.687131 41.9286 1.56499C46.0677 2.44286 49.3459 3.67269 51.7632 5.25878C54.1805 6.84487 55.5079 8.66846 55.7454 10.7253H45.1813C44.9184 9.57177 44.0406 8.56244 42.5393 7.70154C41.0423 6.84064 39.0108 6.17059 36.4494 5.69561C33.8879 5.22063 30.9362 4.98314 27.6029 4.98314C24.3968 4.98314 21.5936 5.18245 19.189 5.57685C16.7844 5.97125 14.9311 6.53954 13.6334 7.28594C12.3357 8.03233 11.6826 8.90172 11.6826 9.89409C11.6826 10.6956 12.0516 11.3572 12.7852 11.8788C13.5189 12.3962 14.7233 12.8288 16.39 13.1723C18.0567 13.5158 20.3255 13.7957 23.1881 14.0162L36.1143 15.0255C41.5003 15.4327 45.7114 15.9882 48.7479 16.6795C51.7844 17.375 53.9557 18.291 55.2704 19.4318C56.5851 20.5726 57.2424 22.0527 57.2424 23.8805C57.2424 25.9713 56.0847 27.8076 53.7734 29.3937C51.4621 30.9797 48.2009 32.2011 43.9981 33.0662C39.7954 33.9271 34.9354 34.3597 29.4138 34.3597C23.7903 34.3597 18.7904 33.889 14.418 32.9475C10.0414 32.006 6.60205 30.6786 4.09144 28.9696C1.58084 27.2605 0.223763 25.2885 0.0117188 23.0535H10.58V23.0408Z" fill="#6CAFEC"/>
</svg>
