<svg width="40" height="40" viewBox="0 0 40 40" fill="none" xmlns="http://www.w3.org/2000/svg">
<g clip-path="url(#clip0_386_1932)">
<path d="M20 23.3335C22.7614 23.3335 25 21.0949 25 18.3335C25 15.5721 22.7614 13.3335 20 13.3335C17.2386 13.3335 15 15.5721 15 18.3335C15 21.0949 17.2386 23.3335 20 23.3335Z" stroke="white" stroke-width="3" stroke-linecap="round" stroke-linejoin="round"/>
<path d="M29.4284 27.7617L22.3568 34.8333C21.7317 35.4577 20.8844 35.8085 20.0009 35.8085C19.1174 35.8085 18.2701 35.4577 17.6451 34.8333L10.5718 27.7617C8.70712 25.8969 7.43731 23.5212 6.9229 20.9348C6.40849 18.3484 6.67257 15.6675 7.68176 13.2312C8.69095 10.7949 10.3999 8.71257 12.5926 7.24751C14.7852 5.78246 17.363 5.00049 20.0001 5.00049C22.6371 5.00049 25.215 5.78246 27.4076 7.24751C29.6003 8.71257 31.3092 10.7949 32.3184 13.2312C33.3276 15.6675 33.5917 18.3484 33.0773 20.9348C32.5629 23.5212 31.2931 25.8969 29.4284 27.7617V27.7617Z" stroke="white" stroke-width="3" stroke-linecap="round" stroke-linejoin="round"/>
</g>
<defs>
<clipPath id="clip0_386_1932">
<rect width="40" height="40" fill="white"/>
</clipPath>
</defs>
</svg>
